<?xml version="1.0" encoding="utf-8"?>
<svg version="1.1" xmlns:xlink="http://www.w3.org/1999/xlink" width="300px" height="214px" xmlns="http://www.w3.org/2000/svg">
  <g transform="matrix(1 0 0 1 -87 -342 )">
    <path d="M 87 342  L 387 342  L 387 556  L 87 556  L 87 342  " fill-rule="nonzero" fill="#cccccc" stroke="none" />
    <path d="M 102 357  L 372 357  L 372 541  L 102 541  L 102 357  " fill-rule="nonzero" fill="#ffffff" stroke="none" />
    <path d="M 259.05 406.20000000000005  C 250.062 406.20000000000005  243 399.13800000000003  243 390.15000000000003  C 243 381.16200000000003  250.062 374.1  259.05 374.1  C 268.038 374.1  275.1 381.16200000000003  275.1 390.15000000000003  C 275.1 399.13800000000003  268.038 406.20000000000005  259.05 406.20000000000005  " fill-rule="nonzero" fill="#cccccc" stroke="none" />
    <path d="M 108 536  L 108 440.85  L 172.75 397.6  L 263.4 461.956  L 315.20000000000005 423.55  L 367 461.956  L 367 536  L 108 536  " fill-rule="nonzero" fill="#169bd5" stroke="none" />
  </g>
</svg>