<?xml version="1.0" encoding="utf-8"?>
<svg version="1.1" xmlns:xlink="http://www.w3.org/1999/xlink" width="500px" height="500px" xmlns="http://www.w3.org/2000/svg">
  <g transform="matrix(1 0 0 1 -470 -216 )">
    <path d="M 470 216  L 970 216  L 970 716  L 470 716  L 470 216  " fill-rule="nonzero" fill="#cccccc" stroke="none" />
    <path d="M 505 251  L 935 251  L 935 681  L 505 681  L 505 251  " fill-rule="nonzero" fill="#ffffff" stroke="none" />
    <path d="M 767.5 366  C 746.5 366  730 349.5  730 328.5  C 730 307.5  746.5 291  767.5 291  C 788.5 291  805 307.5  805 328.5  C 805 349.5  788.5 366  767.5 366  " fill-rule="nonzero" fill="#cccccc" stroke="none" />
    <path d="M 518 669  L 518 446.25  L 619.25 345  L 761 426  L 842 405.75  L 923 426  L 923 669  L 518 669  " fill-rule="nonzero" fill="#169bd5" stroke="none" />
  </g>
</svg>